<svg preserveAspectRatio="none" width="100%" height="100%" overflow="visible" style="display: block;" viewBox="0 0 86 75" fill="none" xmlns="http://www.w3.org/2000/svg">
<path id="Ellipse 1" d="M14.2053 74.9353C7.74855 69.1135 3.20817 61.4714 1.18297 53.0168C-0.842233 44.5622 -0.257126 35.6923 2.86112 27.577C5.97936 19.4616 11.4843 12.4821 18.6498 7.55898C25.8153 2.63583 34.3048 0.000296326 42.9985 2.49739e-08C51.6923 -0.000296276 60.182 2.63466 67.3478 7.55732C74.5137 12.48 80.019 19.4591 83.1378 27.5742C86.2566 35.6893 86.8423 44.5592 84.8177 53.0139C82.7931 61.4687 78.2532 69.1111 71.7969 74.9333L68.8951 71.7155C74.7008 66.48 78.7832 59.6076 80.6038 52.0048C82.4244 44.4021 81.8977 36.426 79.0932 29.1287C76.2887 21.8313 71.3381 15.5554 64.8943 11.1288C58.4506 6.7022 50.8164 4.33277 42.9987 4.33303C35.181 4.3333 27.5469 6.70325 21.1035 11.1303C14.6601 15.5574 9.70987 21.8336 6.90584 29.1311C4.10182 36.4287 3.57567 44.4048 5.3968 52.0074C7.21792 59.6101 11.3008 66.4821 17.1069 71.7172L14.2053 74.9353Z" fill="var(--fill-0, black)"/>
</svg>
